<svg width="63" height="80" viewBox="0 0 63 80" fill="none" xmlns="http://www.w3.org/2000/svg">
<path d="M31.1932 80C24.7057 79.9749 19.1234 78.3781 14.4464 75.2098C9.7945 72.0415 6.21128 67.4525 3.69675 61.4427C1.20735 55.433 -0.0247682 48.2037 0.00037718 39.7548C0.00037718 31.3311 1.24507 24.1521 3.73447 18.2178C6.249 12.2835 9.83222 7.76992 14.4841 4.67704C19.1611 1.55901 24.7308 0 31.1932 0C37.6556 0 43.2127 1.55901 47.8646 4.67704C52.5416 7.79507 56.1374 12.3212 58.652 18.2555C61.1665 24.1647 62.4112 31.3311 62.386 39.7548C62.386 48.2288 61.1288 55.4707 58.6142 61.4804C56.1248 67.4902 52.5542 72.0792 47.9023 75.2475C43.2504 78.4158 37.6807 80 31.1932 80ZM31.1932 66.4592C35.6188 66.4592 39.1517 64.2339 41.792 59.7831C44.4323 55.3324 45.7398 48.6563 45.7147 39.7548C45.7147 33.896 45.1112 29.0178 43.9042 25.1202C42.7224 21.2227 41.0376 18.2933 38.85 16.3319C36.6875 14.3706 34.1352 13.3899 31.1932 13.3899C26.7928 13.3899 23.2724 15.5901 20.6322 19.9906C17.9919 24.391 16.6592 30.9791 16.634 39.7548C16.634 45.6891 17.225 50.6428 18.4068 54.6157C19.6138 58.5636 21.3111 61.5307 23.4987 63.5172C25.6864 65.4785 28.2512 66.4592 31.1932 66.4592Z" fill="url(#paint0_linear_4599_39383)"/>
<defs>
<linearGradient id="paint0_linear_4599_39383" x1="64.3218" y1="40" x2="-9.22135" y2="40" gradientUnits="userSpaceOnUse">
<stop stop-color="#03CDC1"/>
<stop offset="1" stop-color="#8AB9FF"/>
</linearGradient>
</defs>
</svg>
