<svg width="25" height="25" viewBox="0 0 25 25" fill="none" xmlns="http://www.w3.org/2000/svg">
<g clip-path="url(#clip0_6255_1406)">
<path fill-rule="evenodd" clip-rule="evenodd" d="M22.8056 15.0721C24.2259 9.37968 20.7612 3.61534 15.0687 2.1946C9.37829 0.774393 3.61475 4.23883 2.19405 9.9317C0.773751 15.623 4.23542 21.3859 9.92878 22.8063C15.6221 24.2267 21.3877 20.7625 22.8056 15.0721ZM9.4749 24.6256C16.1727 26.2966 22.9565 22.2213 24.625 15.5255C26.2962 8.82745 22.219 2.04665 15.5227 0.375385C8.8264 -1.29588 2.04597 2.78128 0.374832 9.4777C-1.29631 16.1741 2.7771 22.9546 9.4749 24.6256Z" fill="#D74F49"/>
<path d="M15.0692 2.1946C20.7617 3.61535 24.2264 9.37968 22.8062 15.0721C21.3882 20.7625 15.6226 24.2267 9.92929 22.8063C4.23593 21.3859 0.774262 15.623 2.19456 9.9317C3.61526 4.23883 9.3788 0.774397 15.0692 2.1946Z" fill="white"/>
<path fill-rule="evenodd" clip-rule="evenodd" d="M12.5001 20.0006C16.6422 20.0006 20.0001 16.6427 20.0001 12.5005C20.0001 8.35838 16.6422 5.00049 12.5001 5.00049C8.35789 5.00049 5 8.35838 5 12.5005C5 16.6427 8.35789 20.0006 12.5001 20.0006ZM10.2339 15.8984H8.47443C8.05728 15.8984 7.84869 15.8984 7.72378 15.8176C7.58878 15.7303 7.5036 15.5838 7.49458 15.4234C7.48621 15.275 7.58952 15.094 7.79614 14.732L7.79623 14.7319L11.6484 7.98324C11.8581 7.61591 11.9629 7.43225 12.0963 7.36388C12.2404 7.29002 12.4113 7.28989 12.5555 7.36355C12.689 7.43171 12.7941 7.61524 13.0043 7.98224L13.8927 9.53345L13.8928 9.53349C14.0456 9.80034 14.122 9.93379 14.1557 10.0746C14.1922 10.2278 14.1923 10.3875 14.1559 10.5408C14.1224 10.6816 14.0461 10.8151 13.8934 11.0821L11.5898 15.112C11.435 15.3829 11.3576 15.5184 11.2515 15.6196C11.136 15.7298 10.996 15.8111 10.8429 15.8566C10.7023 15.8984 10.5461 15.8984 10.2339 15.8984ZM16.511 15.8984H14.4712C14.0502 15.8984 13.8397 15.8984 13.7144 15.8169C13.579 15.7289 13.4941 15.5813 13.4861 15.4201C13.4787 15.2709 13.5846 15.0892 13.7965 14.7257L14.8147 12.9788C15.0239 12.6199 15.1285 12.4405 15.2609 12.3733C15.404 12.3007 15.5733 12.3005 15.7165 12.3729C15.849 12.4399 15.9539 12.6192 16.1635 12.9777L16.1636 12.9778L17.1852 14.7248C17.3979 15.0884 17.5042 15.2703 17.4969 15.4196C17.4891 15.5809 17.4042 15.7286 17.2687 15.8168C17.1434 15.8984 16.9326 15.8984 16.511 15.8984Z" fill="#D74F49"/>
</g>
<defs>
<clipPath id="clip0_6255_1406">
<rect width="25.0002" height="25.0002" fill="white" transform="translate(0 0.000488281)"/>
</clipPath>
</defs>
</svg>
