<svg width="100" height="26" viewBox="0 0 100 26" fill="none" xmlns="http://www.w3.org/2000/svg">
<path fill-rule="evenodd" clip-rule="evenodd" d="M1.29889 21.3276L0 22.403L2.15085 25.0008L3.44974 23.9253L15.5758 13.8855C16.4447 13.1662 16.4447 11.8339 15.5758 11.1145L3.44974 1.07469L2.15085 -0.000732422L0 2.59706L1.29889 3.67248L11.9608 12.5L1.29889 21.3276ZM37.5093 3.67285L38.8082 2.59743L36.6574 -0.000356436L35.3585 1.07507L23.2324 11.1149C22.3635 11.8343 22.3635 13.1665 23.2324 13.8859L35.3585 23.9257L36.6574 25.0011L38.8082 22.4034L37.5093 21.3279L26.8474 12.5004L37.5093 3.67285ZM21.088 0.613456V2.29977V22.7981V24.4845H17.7153V22.7981V2.29977V0.613456H21.088ZM46.312 4.66594V8.80334L51.9675 5.6482V22.7038H56.343V0.885721H52.9795L46.312 4.66594ZM78.9822 22.7038L72.7612 13.4468L78.2976 7.2853H73.5054L67.6416 14.1016V0.0522877H63.5042V22.7038H67.6416V19.132L69.9633 16.5721L74.0114 22.7038H78.9822ZM91.9914 11.5418L99.6411 0.915486H94.6405L89.6399 8.11874L84.6393 0.915486H79.3708L86.9908 11.6311L79.0136 22.7038H84.0142L89.3422 15.0541L94.6405 22.7038H99.9983L91.9914 11.5418Z" fill="url(#paint0_linear_6255_16471)"/>
<defs>
<linearGradient id="paint0_linear_6255_16471" x1="103.1" y1="12.5002" x2="-14.7808" y2="12.5002" gradientUnits="userSpaceOnUse">
<stop stop-color="#03CDC1"/>
<stop offset="1" stop-color="#8AB9FF"/>
</linearGradient>
</defs>
</svg>
