<svg width="100" height="25" viewBox="0 0 100 25" fill="none" xmlns="http://www.w3.org/2000/svg">
<path fill-rule="evenodd" clip-rule="evenodd" d="M1.29889 21.3274L0 22.4029L2.15085 25.0006L3.44974 23.9252L15.5758 13.8854C16.4447 13.166 16.4447 11.8338 15.5758 11.1144L3.44974 1.07457L2.15085 -0.000854492L0 2.59693L1.29889 3.67236L11.9608 12.4999L1.29889 21.3274ZM37.5093 3.67273L38.8082 2.59731L36.6574 -0.000478506L35.3585 1.07494L23.2324 11.1148C22.3635 11.8341 22.3635 13.1664 23.2324 13.8858L35.3585 23.9256L36.6574 25.001L38.8082 22.4032L37.5093 21.3278L26.8474 12.5003L37.5093 3.67273ZM21.088 0.613334V2.29965V22.798V24.4843H17.7153V22.798V2.29965V0.613334H21.088ZM46.312 4.66582V8.80322L51.9675 5.64808V22.7037H56.343V0.885599H52.9795L46.312 4.66582ZM78.9822 22.7037L72.7612 13.4466L78.2976 7.28518H73.5054L67.6416 14.1015V0.0521657H63.5042V22.7037H67.6416V19.1318L69.9633 16.572L74.0114 22.7037H78.9822ZM91.9914 11.5416L99.6411 0.915364H94.6405L89.6399 8.11861L84.6393 0.915364H79.3708L86.9908 11.6309L79.0136 22.7037H84.0142L89.3422 15.054L94.6405 22.7037H99.9983L91.9914 11.5416Z" fill="url(#paint0_linear_6169_16169)"/>
<defs>
<linearGradient id="paint0_linear_6169_16169" x1="103.1" y1="12.5001" x2="-14.7808" y2="12.5001" gradientUnits="userSpaceOnUse">
<stop stop-color="#03CDC1"/>
<stop offset="1" stop-color="#8AB9FF"/>
</linearGradient>
</defs>
</svg>
