<svg width="25" height="25" viewBox="0 0 25 25" fill="none" xmlns="http://www.w3.org/2000/svg">
<g clip-path="url(#clip0_6255_1359)">
<path fill-rule="evenodd" clip-rule="evenodd" d="M22.8056 15.0719C24.2259 9.37944 20.7612 3.6151 15.0687 2.19435C9.37829 0.774149 3.61475 4.23858 2.19405 9.93146C0.773751 15.6228 4.23542 21.3857 9.92878 22.8061C15.6221 24.2265 21.3877 20.7623 22.8056 15.0719ZM9.4749 24.6253C16.1727 26.2963 22.9565 22.2211 24.625 15.5253C26.2962 8.8272 22.219 2.0464 15.5227 0.375141C8.8264 -1.29612 2.04597 2.78103 0.374832 9.47746C-1.29631 16.1739 2.7771 22.9543 9.4749 24.6253Z" fill="#F3BA2F"/>
<path d="M15.0692 2.19435C20.7617 3.6151 24.2264 9.37944 22.8062 15.0719C21.3882 20.7623 15.6226 24.2265 9.92929 22.8061C4.23593 21.3857 0.774262 15.6228 2.19456 9.93146C3.61526 4.23859 9.3788 0.774153 15.0692 2.19435Z" fill="white"/>
<path d="M14.293 17.7718V19.4953L12.7905 20.3791L11.3321 19.4953V17.7718L12.7905 18.6556L14.293 17.7718ZM6.25 11.8059L7.70834 12.6897V15.6506L10.2273 17.1531V18.8766L6.25 16.5344V11.8059ZM19.3309 11.8059V16.5344L15.3094 18.8766V17.1531L17.8284 15.6506V12.6897L19.3309 11.8059ZM15.3094 9.46366L16.8119 10.3475V12.071L14.293 13.5735V16.5786L12.8346 17.4625L11.3763 16.5786V13.5735L8.76896 12.071V10.3475L10.2715 9.46366L12.7905 10.9662L15.3094 9.46366ZM8.76896 13.3084L10.2273 14.1922V15.9157L8.76896 15.0319V13.3084ZM16.8119 13.3084V15.0319L15.3536 15.9157V14.1922L16.8119 13.3084ZM7.70834 7.96112L9.21088 8.84497L7.70834 9.72881V11.4523L6.25 10.5685V8.84497L7.70834 7.96112ZM17.8726 7.96112L19.3751 8.84497V10.5685L17.8726 11.4523V9.72881L16.4142 8.84497L17.8726 7.96112ZM12.7905 7.96112L14.293 8.84497L12.7905 9.72881L11.3321 8.84497L12.7905 7.96112ZM12.7905 5.00024L16.8119 7.34243L15.3536 8.22628L12.8346 6.72374L10.2715 8.22628L8.81315 7.34243L12.7905 5.00024Z" fill="#F3BA2F"/>
</g>
<defs>
<clipPath id="clip0_6255_1359">
<rect width="25.0002" height="25.0002" fill="white" transform="translate(0 0.000244141)"/>
</clipPath>
</defs>
</svg>
