<svg width="25" height="25" viewBox="0 0 25 25" fill="none" xmlns="http://www.w3.org/2000/svg">
<g clip-path="url(#clip0_6255_1412)">
<path fill-rule="evenodd" clip-rule="evenodd" d="M22.8056 15.0724C24.2259 9.37992 20.7612 3.61559 15.0687 2.19484C9.37829 0.774637 3.61475 4.23907 2.19405 9.93194C0.773751 15.6232 4.23542 21.3861 9.92878 22.8066C15.6221 24.227 21.3877 20.7627 22.8056 15.0724ZM9.4749 24.6258C16.1727 26.2968 22.9565 22.2215 24.625 15.5257C26.2962 8.82769 22.219 2.04689 15.5227 0.375629C8.8264 -1.29563 2.04597 2.78152 0.374832 9.47795C-1.29631 16.1744 2.7771 22.9548 9.4749 24.6258Z" fill="#8247E5"/>
<path d="M15.0692 2.19484C20.7617 3.61559 24.2264 9.37993 22.8062 15.0724C21.3882 20.7627 15.6226 24.227 9.92929 22.8066C4.23593 21.3861 0.774262 15.6232 2.19456 9.93195C3.61526 4.23907 9.3788 0.774641 15.0692 2.19484Z" fill="white"/>
<path d="M16.001 10.4766C15.7473 10.3271 15.4175 10.3271 15.1385 10.4766L13.1596 11.6229L11.8151 12.3705L9.83628 13.5168C9.58259 13.6663 9.25279 13.6663 8.97373 13.5168L7.40084 12.6197C7.14715 12.4702 6.96957 12.1961 6.96957 11.897V10.1277C6.96957 9.82871 7.12178 9.55459 7.40084 9.40507L8.94836 8.53289C9.20205 8.38337 9.53185 8.38337 9.81091 8.53289L11.3584 9.40507C11.6121 9.55459 11.7897 9.82871 11.7897 10.1277V11.274L13.1343 10.5015V9.35524C13.1343 9.0562 12.9821 8.78208 12.703 8.63256L9.83628 6.98787C9.58259 6.83835 9.25279 6.83835 8.97373 6.98787L6.05628 8.63256C5.77722 8.78208 5.625 9.0562 5.625 9.35524V12.6696C5.625 12.9686 5.77722 13.2427 6.05628 13.3922L8.97373 15.0369C9.22742 15.1864 9.55722 15.1864 9.83628 15.0369L11.8151 13.9155L13.1596 13.143L15.1385 12.0216C15.3921 11.8721 15.7219 11.8721 16.001 12.0216L17.5485 12.8938C17.8022 13.0433 17.9798 13.3175 17.9798 13.6165V15.3858C17.9798 15.6848 17.8276 15.9589 17.5485 16.1084L16.001 17.0056C15.7473 17.1551 15.4175 17.1551 15.1385 17.0056L13.5909 16.1334C13.3372 15.9839 13.1596 15.7097 13.1596 15.4107V14.2644L11.8151 15.0369V16.1832C11.8151 16.4822 11.9673 16.7564 12.2463 16.9059L15.1638 18.5506C15.4175 18.7001 15.7473 18.7001 16.0264 18.5506L18.9438 16.9059C19.1975 16.7564 19.3751 16.4822 19.3751 16.1832V12.8689C19.3751 12.5699 19.2229 12.2958 18.9438 12.1463L16.001 10.4766Z" fill="#8247E5"/>
</g>
<defs>
<clipPath id="clip0_6255_1412">
<rect width="25.0002" height="25.0002" fill="white" transform="translate(0 0.000732422)"/>
</clipPath>
</defs>
</svg>
